# xmcd
#
# Track frame offsets:
#	150
#	9243
#	29474
#	49641
#	71590
#	91813
#	110123
#	132615
#	154379
#	173962
#	196281
#	211727
#	230494
#	250430
#	266087
#
# Disc length: 3801 seconds
#
# Revision: 3
# Processed by: cddbd v1.5.2PL0 Copyright (c) Steve Scherf et al.
# Submitted via: EasyCDDAExtractor 11.5.0.1
#
DISCID=d60ed70f
DTITLE=신승훈 - Ninth Reply
DYEAR=2004
DGENRE=Blues
TTITLE0=Plologue - East Side Story
TTITLE1=哀心歌
TTITLE2=두 번 헤어지는 일
TTITLE3=그런 날이 오겠죠
TTITLE4=Come to me
TTITLE5=Love Song
TTITLE6=그게 바로 사랑이죠
TTITLE7=시애틀의 잠 못 이루는 밤
TTITLE8=아쩌죠
TTITLE9=게으름뱅이의 어느 날 아침
TTITLE10=사랑해도 되나요
TTITLE11=그댈 잊는다는 게
TTITLE12=네 멋대로 해라
TTITLE13=그녀와 마지막 춤을
TTITLE14=哀而不悲 II
EXTD=
EXTT0=
EXTT1=
EXTT2=
EXTT3=
EXTT4=
EXTT5=
EXTT6=
EXTT7=
EXTT8=
EXTT9=
EXTT10=
EXTT11=
EXTT12=
EXTT13=
EXTT14=
PLAYORDER=
